/* XPM */
static char *_3b2effb84ee463c8ac89828c328c404J0NFc2jf9NSY5jur[] = {
/* columns rows colors chars-per-pixel */
"64 64 235 2 ",
"   c None",
".  c #051A36",
"X  c #041D3D",
"o  c #091F3A",
"O  c #0B1D33",
"+  c #0B213D",
"@  c #0F2036",
"#  c #14253C",
"$  c #1B2A3D",
"%  c #19283C",
"&  c #262F3A",
"*  c #2B333C",
"=  c #28313C",
"-  c #35393D",
";  c #3B3C3B",
":  c #353737",
">  c #423E36",
",  c #3E433F",
"<  c #45423A",
"1  c #4A443A",
"2  c #484538",
"3  c #584B37",
"4  c #5C543B",
"5  c #624E36",
"6  c #634F38",
"7  c #63513A",
"8  c #695637",
"9  c #785C36",
"0  c #76592D",
"q  c #7E6135",
"w  c #041E40",
"e  c #062144",
"r  c #0B2444",
"t  c #0B2649",
"y  c #0D294D",
"u  c #092549",
"i  c #112742",
"p  c #142944",
"a  c #1A2D44",
"s  c #122C4C",
"d  c #182E4B",
"f  c #1C324C",
"g  c #1D3048",
"h  c #0E2C53",
"j  c #0E2E59",
"k  c #122F54",
"l  c #102F5A",
"z  c #143155",
"x  c #1B3453",
"c  c #14335C",
"v  c #18375D",
"b  c #1C395D",
"n  c #1F3957",
"m  c #0F305C",
"M  c #243243",
"N  c #2B3641",
"B  c #2C3945",
"V  c #23354B",
"C  c #2C3B4C",
"Z  c #26384D",
"A  c #333C44",
"S  c #363D46",
"D  c #2C3E53",
"F  c #233C5D",
"G  c #253B56",
"H  c #303F52",
"J  c #202F42",
"K  c #143662",
"L  c #163966",
"P  c #1B3A62",
"I  c #163A6A",
"U  c #193C69",
"Y  c #153665",
"T  c #173E73",
"R  c #0F3468",
"E  c #213E63",
"W  c #213F68",
"Q  c #34414D",
"!  c #3A444D",
"~  c #3C464A",
"^  c #2C4259",
"/  c #344354",
"(  c #394858",
")  c #3C505D",
"_  c #1B4174",
"`  c #1C447B",
"'  c #1E416A",
"]  c #2B4463",
"[  c #25446B",
"{  c #284569",
"}  c #324C6A",
"|  c #324A64",
" . c #3D5368",
".. c #254876",
"X. c #385474",
"o. c #314E70",
"O. c #434443",
"+. c #444A4C",
"@. c #4A4A46",
"#. c #534D44",
"$. c #595648",
"%. c #434D56",
"&. c #4A5557",
"*. c #545857",
"=. c #4B534B",
"-. c #615E53",
";. c #695941",
":. c #66644B",
">. c #776647",
",. c #676459",
"<. c #717258",
"1. c #465968",
"2. c #585D69",
"3. c #465A74",
"4. c #5A5E70",
"5. c #5A6565",
"6. c #4B6173",
"7. c #586A78",
"8. c #556973",
"9. c #666B65",
"0. c #6E726B",
"q. c #65747A",
"w. c #747B77",
"e. c #6E6D6E",
"r. c #5E635F",
"t. c #8A642A",
"y. c #86632B",
"u. c #886737",
"i. c #946D39",
"p. c #9A723C",
"a. c #9A722F",
"s. c #A97C3E",
"d. c #856C47",
"f. c #997646",
"g. c #887658",
"h. c #8E744D",
"j. c #A47E48",
"k. c #847A66",
"l. c #887675",
"z. c #7F836C",
"x. c #9A823D",
"c. c #AC8239",
"v. c #C78A39",
"b. c #C98C39",
"n. c #928A57",
"m. c #BA8A47",
"M. c #B78948",
"N. c #A78858",
"B. c #B68B56",
"V. c #B3924F",
"C. c #888877",
"Z. c #98977B",
"A. c #948769",
"S. c #AC9568",
"D. c #B79965",
"F. c #AA9D7A",
"G. c #AF8D6F",
"H. c #B7A476",
"J. c #BCAA6C",
"K. c #BFB055",
"L. c #C98E42",
"P. c #CA944A",
"I. c #C99456",
"U. c #D09752",
"Y. c #D4A55B",
"T. c #C9AA59",
"R. c #CA9B75",
"E. c #CD9A65",
"W. c #D6AA69",
"Q. c #C5A875",
"!. c #DCB878",
"~. c #CEAF70",
"^. c #E1BD7A",
"/. c #D6C979",
"(. c #1B4684",
"). c #1F4F9C",
"_. c #234C86",
"`. c #345488",
"'. c #2B5291",
"]. c #2B56AD",
"[. c #37618E",
"{. c #526D8D",
"}. c #667985",
"|. c #666981",
" X c #466FAD",
".X c #386CC9",
"XX c #778586",
"oX c #6F8190",
"OX c #5492E9",
"+X c #5FA2DD",
"@X c #878B86",
"#X c #8E958B",
"$X c #929788",
"%X c #8A9794",
"&X c #959E95",
"*X c #9BA69B",
"=X c #B7AC86",
"-X c #A6AB98",
";X c #BAB898",
":X c #B8AA8E",
">X c #AFB2A5",
",X c #A69B9D",
"<X c #C5B78A",
"1X c #CDB78C",
"2X c #C5B9A4",
"3X c #BDC2AB",
"4X c #CBC298",
"5X c #D6C594",
"6X c #E5C688",
"7X c #E8CE93",
"8X c #EDD599",
"9X c #F0D99C",
"0X c #C6C7AA",
"qX c #D6CAA4",
"wX c #D8D4AC",
"eX c #C9CCB3",
"rX c #D8DAB9",
"tX c #D1CBB2",
"yX c #E9D8A6",
"uX c #F1DFA5",
"iX c #E5CFBA",
"pX c #F5E9B5",
"aX c #FBF1BD",
"sX c #F3E3AA",
"dX c #ADB9D5",
"fX c #D0BAC1",
"gX c #95CFF2",
"hX c #CFD0CE",
"jX c #E5D6CA",
"kX c #F6ECC9",
"lX c #FDF9C9",
"zX c #FCFAD4",
"xX c #EDE7D2",
"cX c #F5F0EA",
"vX c #D4E1E5",
/* pixels */
"                                                                                                                                ",
"                                                  X X X X X X X X X X w X X                                                     ",
"                                            X X X o % * < 3 3 4 3 3 1 ; & % o X X X                                             ",
"                                      X X X # > 8 i.i.i.d.q 9 9 9 9 u.i.p.i.u.4 : # X X                                         ",
"                                  X w w : 8 i.u.8 > = # o o . . X X + + % : 1 9 p.i.5 & + X                                     ",
"                              X o + ; y.i.6 : + w w X o w w + + + + . . X X X w # ; 9 a.9 * o X                                 ",
"                            e X * 9 y.3 % X w w w # & @ & : + < ; # : : @ % # w w w o = 5 a.8 $ w e                             ",
"                          w # 3 t.3 # w w w # ! w & 2 @ < 8 M 3 3 , ; + = > > J N i w w X & 0 t.> + w                           ",
"                      e e & 0 0 N w w w a V a <.%.V *.V @.O.A #.O.= &.Q S %.&.B *.a %.i e e + < y.0 # +                         ",
"                    e e : t.3 i w w y d 2.&.d 9.%.H H g r r i $ % # # # i H S / %.H 0.%.p e e e & 0 0 & u                       ",
"                  e r ; y.< + r w t w w S -.N a + J : > > 1 > > < 2 2 2 > M # d a C *.*.e t e r e # 8 q * e                     ",
"                t r ; t.; u e r y w y y a i i - 1 > : J p i i r r + r p M - > > = r & $ e r t t u u # 5 y.* u                   ",
"                t - y.; e t t t y y w w i ; > S J w w w r r i i r r i w r e r a - > = u u u u u u u r r 5 y.& u                 ",
"              y = t.< u u u t t w t y N > ; a w w i w i r r w r r r r r i r i w e p ; ; a u t u t t u u t 0 q $ u               ",
"            u a q 4 u y y u u u y i ; > g s s s s s a w i r u w i r t t y t t w r y k & > N u t y u y u t g u.8 y               ",
"          h u 8 u.p y t y y y y s > S i w i t i w i s i t r t u k k c k k k k y s c y e r ; A u y y y y t t Q a.1 t             ",
"          y ~ x.Q u y h u h y s 2 , t t t t i t i t s i y y y h l l R l R R l l I m y w t i - - y u h y y y y 4 x.B y           ",
"        h d x.8 y y h u y h s , * e u u i t u r y i k w i y j j R R R R R R R T T j h h u w t A Q u y h y h h s x.q y           ",
"        t =.V.f h h h k h u , , u p @.$.$.#.4 @.B y G #.$.#.*.*.4.4.4.4.4.4.|.|.2.*.#.#.#.O.s i , B y h h y h h =.K., u         ",
"      k z K.:.y h h h h h Q , s t g c.b.L.v.v.v.i.d d 9 I.I.I.E.E.R.R.R.R.R.R.R.E.I.I.P.L.p.d y s , x h h h h h c K.z.+         ",
"      h *.K.Q h k h h h x 4 f y y M c.L.c.s.v.P.v.;.x M f.B.B.G.G.R.G.G.R.,X,XR.G.I.j.I.P.f.d y u f , k k k h h h *.K.^ z       ",
"      h n.z.h k k j m h =.~ y h s H V.U.>.& p.U.I.P.&.h V H F { { `.`.]. X.X`.o.W F F g.E.j.d s k k ~ ^ j k j j k ^ K.z.j       ",
"    j ^ K.) j m m z k n :.x s n b H V.Y.-.t Q V.W.Y.B.F Y Y T ` (.].].].OX X`.`.` T T l.W.N.x s x s n =.z c m k c j z.K.v       ",
"    j z.=Xn m c c c m *.) j k b k G D.W.,.k s $.W.W.W.k.U T ` (.).]..XOXdXfX2X:X{.T Y l.W.N.x k k k z =.^ m c c c m ) /.) v     ",
"    K Z.C.j c c K c v 9.n z z b c D Q.!.,.c v f n.!.!.!.8.T ` (.]..XOXgXvXfXiX@X` T T l.!.S.G l x z k ^ &.K c c c c K <Xz.m     ",
"  P F <X8.c c K K K ) 5.z c z P c ^ Q.6X0.h v k Z H.6X6X:XX.(.).].OXgXvXjXiX,X`.(.T T C.6XF.F z v c z v 1.P K K K K R Z.Z.m     ",
"  K } <X} K L L L L 1.1.z c c P b ^ 1X7X0.j z c k *.1X8X8X*X'.)..XgXvXvXxXfX{.(.` ` T C.6XH.E z c c v v &.] L L L K K z.<XP     ",
"  K 8.;X' L P L L P 8.^ z v v E b ] 5X9Xw.j v v c s C.yXuXrXoX)..XdXvXcXjX|.(.(.` T T C.7XH.E l v v v P |  .L L ' K ' 1.4X} '   ",
"  ' q.-Xb P L L ' L q.n c v c P P | qXsXz.j c c v c D :XpXpXtXoX+XjXkXkX>X_._.` _ T I $X8X=XF v b v v ' ^ 1.L L L L L X.qX1.'   ",
"  ' XX&XL ' I I ' { q.v v ' b ' K } wXaXXXc c v v v W 1.wXkXkXhXiXkXkXhX`._.` ` _ ' L #XsX;X' v b P v v ' 1.I U I I L } 0X8.L   ",
"  L %X#XI I I I ' { 7.' b [ ' P P } rXlXXXc K c v v [ E w.aXzXzXlXzXxX{.T _.T T ' U c $XpX<XF v ' v v ' P 6.' I ' I I [ 0Xq.L   ",
"  L &X%XL I ' I R o.7.P v P v ' P } jXlXXXj c c K v P P P dXcXzXzXzX,XW T T W W L ' v &XaX0X[ v v v v ' v 6.' ' I I I [ 0X}.L   ",
"  R &X%XR ' I ' ' o.7.c v P K P ] } rXlXXXc v v v P P L } +XzXlXlXkX7.I ' I P U K P P *XlX0X' v b v L P v 6.' I I ' I ' eX}.L   ",
"  _ %X*XL I I I I ..q.v v P P P ' } wXaXXXc v c v K P ' {.tXaXaXaXpX;X] K P P K P b v *XzXeX] v P v b P b 6.' I I I ' [ eX}.L   ",
"  L XX-XL ' ' I I [ |.K c v E v v X.qXpX}.c v v v K [ X.-XpXpXuXyXpXsX@Xv v P P v K m *XlX0XF v P v P P ' 6.I ' I ' I o.wX{.K   ",
"  L oX>XI I L I I ' q.E v c c P c | qXsXw.b v c v b ..XXuXuX9Xw.$XuXuXwX8.c v P b v c &XaX3X' c P v P P ] 3.L I I P I X.rX3.K   ",
"  K 7.3X' L ' I I L 7.{ c c v b P ] 5X8Xw.c P v v .. X7X8X8X$Xx ^ =X8X8X<X} c c P c v #XpX;X^ v P P v P } X.I L L I L {.rX} c   ",
"  K X.eXX.L L L L L 6.X.b K c c c | <X7Xw.P b P L [.>X8X7X<X%.z z &.6X7X7XZ.b v P v v Z.9X:XP c P v v P 1.{ L L L L K XXeX'     ",
"  v [ 3X7.I L L L L } 7.c v c c c ^ Q.6Xw.E v ' ..@X6X6X!.,.k c c d k.6X6X1X9.c b v v C.8XH.F c P v b b 3.P L L L L L -X*XL     ",
"    K *X&Xc K L L K L q.E x b b c ^ Q.^.e.P v ..{.!.!./.A.x c z c c Z D.^.^.Q.| b z v C.6XH.F c b c c ] 1.K L L L L [ eXXXc     ",
"    c }.3X' c c Y K K 1.1.l c c z ^ E.!.e.{ E 3.H.!.!.D.D v c c z c z +.E.!.!.A.^ c c A.^.D.F c v v c  .{ K v K K c 6.rXX.v     ",
"    c } eX3.K K K K K E 7.v c c c ^ R.W.e.X.|.G.W.W.U.=.k c k c z z z z <.I.T.I.,.z c <.W.S.n z b m ^ 1.K K K K K K %X3Xv       ",
"      c *X%Xc c K c K c 1. .k z b ^ D.W.l.`.l.W.Y.U.>.z k v k z k k k z d S S A H k c g.W.N.n z v z  .^ m c v K K [ 0XXXc       ",
"      c 8.0X{ c c K l c F 2.G k z D B.W.l.l.E.E.U.j.V G H / H D H H D ^ H H C C / H D h.U.j.x k v ^ ) m v m m v j q.wX| z       ",
"      z v ;Xz.R l l v c R H 2.z k H j.E.W.R.E.U.m.; h -.m.m.m.m.m.m.m.m.m.m.m.m.m.m.m.I.P.f.x k v &.v c c m c m b ;X#Xz         ",
"        k 8.4X[ l l l l l l %.( k H s.L.U.U.b.b.7 t S s.b.v.v.v.v.v.v.v.v.v.v.v.v.v.v.v.v.s.f k ( ^ j c m m z j q.wX} z         ",
"        f c -XC.h h k l l l l *./ d 6 6 6 6 6 6 a k S 6 6 6 5 5 8 6 5 6 5 6 6 5 6 5 5 6 5 1 f / / m j h j h h ^ ;XC.z           ",
"          h  .4X1.h h l h l l l *./ y y r i i p s k i i r s r r y i r r + i i r y i r r i r / / h h k j j j h C.2X^ z           ",
"          f h z.:Xn h k h k f f z =./ x y z z z s s y s s x s s t s s s s s s s z s s s x ! Q h z k h h h h 1.5X5.y             ",
"            s n =XC.k h y B ; ; a k Q +.d d y d s y s s t x t s s x s z x k s y s p y f ~ f h h - B y h h ^ <XC.k               ",
"              y ^ =X0.y y ; M p M f y Z +.Q d s s p t s y s p t t d i t r t p t s f B Q d y f = : 2 s y n F.F.x s               ",
"                u %.Q.9.t a * f $.4 d y y B , A p t r s i s t s s s r s s s s d A S f y y f < # t $ p k A.H./ s                 ",
"                d t &.Q.,.t t B :.@.V Q s u p N ~ ; * a p s p t r s p p Z N S A g y t s D Z *.^ Q e f A.J.( y                   ",
"                  d t *.H.,.p t Z d / 9.C / x t r p M A ; ; - - - - - - * M p r u f f 9.,.( B ! p f A.S.Q t                     ",
"                    d r %.D.g.V e e / Z Z 0.2.Z / p e u u r i i p t r u e u d s / ,.V %.*.2.u w ~ D.N.Q t                       ",
"                      a w B n.N.+.e + e / %.M V r.Z ( ! r d Z t r r p H C f 5.&.Z 9.H p g w d :.D.g.d r                         ",
"                          r p :.B.d.Z w w w w H M C +.+.H =.S M ! ! V -.,.a ,.,.a +.A e e @.N.B.#.r p                           ",
"                            a w S h.V.>.N r w # w J < O.* @.i $ O.O.M #.1 $ * $ # X # O.h.V.>.J r a                             ",
"                                r + < h.M.d.1 & w o # # o & : + * : o # + + + + = $.f.M.d.A o i                                 ",
"                                  i o + * >.j.j.d.;.; = # + @ + o @ + $ * @.8 f.M.f.;.= o o                                     ",
"                                      # o o # ; 8 f.s.s.j.p.i.d.i.f.p.s.s.s.u.7 : # X +                                         ",
"                                            # o o o % & > 1 3 7 4 3 1 ; & # + X o @                                             ",
"                                                    O . . . . X . . . . . O                                                     ",
"                                                                                                                                "
};
