/* XPM */
static char *ac37b0da99ce4117ad8376c18d919555VQrMyUHAEXX1zLdJ[] = {
/* columns rows colors chars-per-pixel */
"32 32 197 2 ",
"   c None",
".  c #0C1F38",
"X  c #0E223C",
"o  c #14253D",
"O  c #1B2B3E",
"+  c #132438",
"@  c #222E3D",
"#  c #26303D",
"$  c #2C333D",
"%  c #35393B",
"&  c #3B3B3A",
"*  c #34373C",
"=  c #413F3A",
"-  c #43413D",
";  c #4A443C",
":  c #4D4536",
">  c #534836",
",  c #51473A",
"<  c #554A3A",
"1  c #564A39",
"2  c #5F5439",
"3  c #61523C",
"4  c #0C2544",
"5  c #0B264A",
"6  c #0E294C",
"7  c #072346",
"8  c #122743",
"9  c #142945",
"0  c #1C2D44",
"q  c #132C4B",
"w  c #192E49",
"e  c #1E3046",
"r  c #1D324B",
"t  c #0E2C53",
"y  c #0F2F59",
"u  c #122E54",
"i  c #193456",
"p  c #1E3956",
"a  c #14335C",
"s  c #19375E",
"d  c #1D395C",
"f  c #143155",
"g  c #202F43",
"h  c #243243",
"j  c #2A3543",
"k  c #2D3944",
"l  c #23354B",
"z  c #2D3D4C",
"x  c #283749",
"c  c #333C44",
"v  c #323E49",
"b  c #3D3E42",
"n  c #223955",
"m  c #2B3D52",
"M  c #233C5A",
"N  c #243751",
"B  c #143662",
"V  c #163865",
"C  c #1A3A62",
"Z  c #173B69",
"A  c #1C3D69",
"S  c #163F78",
"D  c #173D70",
"F  c #213D60",
"G  c #3A4145",
"H  c #36424C",
"J  c #3A434B",
"K  c #2C425C",
"L  c #2B4158",
"P  c #344352",
"I  c #3F4C55",
"U  c #374959",
"Y  c #3B515F",
"T  c #1C4278",
"R  c #2A4464",
"E  c #23436B",
"W  c #29476A",
"Q  c #29496F",
"!  c #274466",
"~  c #324A64",
"^  c #324D6A",
"/  c #36506D",
"(  c #3A536D",
")  c #3E5465",
"_  c #294B75",
"`  c #304F72",
"'  c #355171",
"]  c #385575",
"[  c #424242",
"{  c #4C4D4B",
"}  c #524F47",
"|  c #51594D",
" . c #5B5347",
".. c #414951",
"X. c #475358",
"o. c #565957",
"O. c #4B564E",
"+. c #655A44",
"@. c #715D42",
"#. c #645A53",
"$. c #696348",
"%. c #786142",
"&. c #656156",
"*. c #746C5A",
"=. c #797C58",
"-. c #415363",
";. c #4B5A65",
":. c #545C60",
">. c #535E6B",
",. c #455D72",
"<. c #5A656C",
"1. c #4B6379",
"2. c #516573",
"3. c #5D6C74",
"4. c #586977",
"5. c #626A68",
"6. c #736865",
"7. c #657269",
"8. c #797768",
"9. c #616A77",
"0. c #61737D",
"q. c #727878",
"w. c #8A6A3F",
"e. c #896E4E",
"r. c #8A6C42",
"t. c #8F755A",
"y. c #A87D41",
"u. c #8B7765",
"i. c #8E7975",
"p. c #7B837B",
"a. c #7E8466",
"s. c #AF8041",
"d. c #AC824C",
"f. c #B68745",
"g. c #B99359",
"h. c #AE8B55",
"j. c #908365",
"k. c #91817C",
"l. c #98947F",
"z. c #878370",
"x. c #A58C60",
"c. c #AE9162",
"v. c #B89669",
"b. c #B69E73",
"n. c #BEA675",
"m. c #C7925F",
"M. c #C28C4B",
"N. c #D1A661",
"B. c #DCBD7E",
"V. c #C5A973",
"C. c #1F4D99",
"Z. c #1D4889",
"A. c #315587",
"S. c #5F7381",
"D. c #526D92",
"F. c #446898",
"G. c #627682",
"H. c #677B86",
"J. c #777485",
"K. c #767E95",
"L. c #3B72C7",
"P. c #6E8087",
"I. c #7B8483",
"U. c #75868B",
"Y. c #79898C",
"T. c #768282",
"R. c #7C899E",
"E. c #699DD4",
"W. c #808D8C",
"Q. c #8E8F98",
"!. c #829192",
"~. c #87969B",
"^. c #BEAC81",
"/. c #ACAC98",
"(. c #BBB7B6",
"). c #C7B88C",
"_. c #C2B289",
"`. c #DCBD81",
"'. c #C5BB94",
"]. c #B7C2BB",
"[. c #CFC69D",
"{. c #C7C19C",
"}. c #D8C997",
"|. c #E2CB92",
" X c #CDC7A6",
".X c #D3CCA5",
"XX c #D4D5B4",
"oX c #E7DCB1",
"OX c #8095CA",
"+X c #92C4F4",
"@X c #C2CDC9",
"#X c #E0CFCC",
"$X c #E2DBC4",
"%X c #F3EDC0",
"&X c #F8F4CC",
"*X c #FCFADB",
"=X c #E0E4E7",
/* pixels */
"                            X X X X                             ",
"                    X # = , 1 1 1 1 , = @ X                     ",
"                + & < : * O o o o O @ & , 1 % o                 ",
"              $ > & 8 8 O @ % % % # @ O o @ = > $               ",
"          4 & : 0 4 z ..J v c * % k v H H U 7 @ > %             ",
"        4 = = 4 7 4 z j k $ @ @ # # $ j j v 5 7 8 > &           ",
"        = - 4 7 5 9 $ h 8 X 4 7 4 4 4 o @ # 9 7 4 q , &         ",
"      k < 6 5 5 0 j 0 4 4 q 4 4 5 t t 5 t w # w 5 5 w 2 k       ",
"    r $.r t 6 r # 9 5 4 6 q 6 t B B B V B 6 8 h w t 5 z $.q     ",
"    | | 6 t r k r %.r.w.[ G e.t.u.i.i.i.u.e.@.w x q t t $.O.    ",
"  p =.p t y H q z d.w.f.d.J #.6.q.J.R.J.6.t.d.e r z t t P a.    ",
"  Y 7.y y L U f L g.{ | N.u.C S C.L.OXK._ >.c.p t L p a i a.Y   ",
"  7.;.B s Y p i K n.;.f j.`.0.Z.L.+X#XQ.T 2.b.M f p K B a 7.<.  ",
"Z q.Q B E ) a s ~ ).;.y K _. XF.E.=X(.A.T 4.^.! s s ~ V B 1.p.  ",
"E T.E Z E ) s C / .X2.a a 3.oX].@X$XD.T T 3.).R s V ~ E Z ' U.  ",
"W U.E Z E / V C / XX2.a s C ~.*X&XQ.S S V 0. XW C s ~ E Z ' Y.  ",
"Q Y.A Z Q ^ a C / XX2.a C C R.%X%XG.A C B G.XXW C C ^ E Z ` !.  ",
"F Y._ Z W / s C ^  X2.a B 1..X[..X'.~ C a G..XW a C W E Z ] !.  ",
"Z U.' Z F ] s a ~ ).<.a _ /.}.:.5.|.Q.n a 3.'.R s C ^ C Z 1.U.  ",
"  G.1.B V ( F a K V.>.C q.|.8.i i u.B.5.B <.n.R s F W V B H.S.  ",
"  ,.U.B B F ^ a K v.>.9.V.x.N a u m c.c.m :.v.M a R A B V !.,.  ",
"  F Y.E a a ~ M K v.i.v.g...m m m m ..{ P &.h.n d K a y ( Y.    ",
"    <.3.a a F ..m y.m.M. .} s.s.s.s.s.y.s.f.y.N K i a a T.2.    ",
"    M p.F y y F m b [ = w c - - [ = - - [ = b m i t t -.p.      ",
"      -.q.f w x N z q 6 q 6 6 6 6 q u 6 6 q x i l t M p.Y       ",
"        o.5.e h G e x l w 6 q 9 q 4 q q l e r x # r 8.:.        ",
"        w o.&.e H P N l h h e 0 0 g h 0 r N I z N *.o.          ",
"          q | &.x r P P z r w 0 9 e r P I H v G *.O.            ",
"              J +.} h 8 h b b # v G G J j c  .#.v               ",
"                0 [ +.+.[ % @ @ $ @ * ; +.+.[ O                 ",
"                    o * ; < 3 3 3 3 < [ $                       ",
"                            . + + +                             "
};
