<?xml version="1.0" standalone="no"?>
<!DOCTYPE svg PUBLIC "-//W3C//DTD SVG 20010904//EN"
 "http://www.w3.org/TR/2001/REC-SVG-20010904/DTD/svg10.dtd">
<svg version="1.0" xmlns="http://www.w3.org/2000/svg"
 width="256.000000pt" height="256.000000pt" viewBox="0 0 256.000000 256.000000"
 preserveAspectRatio="xMidYMid meet">

<g transform="translate(0.000000,256.000000) scale(0.100000,-0.100000)"
fill="#000000" stroke="none">
<path d="M0 1280 l0 -1280 1280 0 1280 0 0 1280 0 1280 -1280 0 -1280 0 0
-1280z m1563 1136 c87 -22 307 -116 307 -130 0 -3 -7 -2 -17 1 -11 4 -14 3 -9
-6 5 -7 -20 2 -53 19 -313 157 -715 159 -1024 3 -38 -19 -66 -29 -61 -22 5 9
2 10 -9 6 -10 -3 -17 -4 -17 -2 0 10 163 86 234 110 130 44 216 55 391 51 132
-3 177 -8 258 -30z m-353 -188 c0 -4 -9 -3 -21 4 -17 11 -22 10 -33 -4 -18
-24 -24 -22 -19 5 4 19 10 23 30 19 20 -4 24 -2 19 9 -4 8 0 5 8 -5 9 -11 16
-24 16 -28z m181 -8 c11 -6 25 -8 32 -4 9 5 9 4 0 -6 -21 -23 -63 3 -62 37 2
24 2 25 6 5 2 -12 13 -27 24 -32z m-330 12 c-16 -31 -14 -35 17 -27 17 4 23 3
17 -3 -14 -13 -65 -24 -65 -14 0 15 32 74 37 68 2 -2 0 -13 -6 -24z m216 -12
c13 0 30 14 36 30 4 10 6 8 6 -6 1 -22 -16 -34 -50 -34 -14 0 -19 7 -18 28 0
26 1 26 9 5 5 -13 13 -23 17 -23z m210 20 c-7 -25 16 -55 36 -47 9 3 20 21 26
39 l9 33 1 -32 c1 -36 -26 -58 -59 -48 -21 7 -36 46 -25 64 10 18 18 12 12 -9z
m-513 -24 c32 -43 32 -47 2 -33 -13 6 -22 17 -19 23 2 7 -1 15 -7 19 -8 5 -11
-1 -10 -16 4 -41 0 -59 -10 -59 -5 0 -10 23 -10 50 0 61 16 65 54 16z m666 30
c0 -2 -7 -17 -15 -32 -8 -16 -15 -37 -15 -46 0 -12 -5 -15 -16 -11 -9 3 -12 9
-6 12 12 8 32 68 25 75 -4 3 1 6 10 6 10 0 17 -2 17 -4z m-785 -54 c-5 -23 -1
-31 20 -42 14 -7 23 -15 21 -18 -3 -2 -13 1 -23 6 -14 9 -21 6 -31 -11 -12
-21 -12 -21 -6 4 4 20 0 28 -22 37 -14 7 -24 15 -21 18 3 3 14 1 25 -5 17 -9
21 -7 26 14 9 35 19 32 11 -3z m855 -12 c0 -22 5 -40 10 -40 6 0 10 4 10 8 0
5 7 17 15 28 9 11 7 0 -5 -25 -12 -24 -25 -39 -30 -35 -11 13 -19 104 -9 104
5 0 9 -18 9 -40z m-31 -14 c-7 -14 -16 -26 -21 -26 -5 0 -1 14 7 31 20 37 31
33 14 -5z m-356 -23 c-29 -2 -77 -2 -105 0 -29 2 -6 3 52 3 58 0 81 -1 53 -3z
m-170 -10 c-7 -2 -21 -2 -30 0 -10 3 -4 5 12 5 17 0 24 -2 18 -5z m280 0 c-7
-2 -19 -2 -25 0 -7 3 -2 5 12 5 14 0 19 -2 13 -5z m-336 -9 c-3 -3 -12 -4 -19
-1 -8 3 -5 6 6 6 11 1 17 -2 13 -5z m380 0 c-3 -3 -12 -4 -19 -1 -8 3 -5 6 6
6 11 1 17 -2 13 -5z m-420 -10 c-3 -3 -12 -4 -19 -1 -8 3 -5 6 6 6 11 1 17 -2
13 -5z m-701 -156 c-276 -395 -286 -908 -27 -1300 142 -213 359 -381 591 -456
583 -189 1210 118 1415 692 88 244 91 517 11 754 -31 90 -94 217 -146 294 -36
52 -38 58 -20 58 50 0 188 -249 237 -425 25 -93 27 -114 27 -295 0 -180 -2
-203 -27 -293 -30 -112 -104 -274 -168 -368 -55 -82 -185 -217 -269 -280 -84
-63 -218 -133 -328 -170 -233 -79 -500 -80 -746 -2 -344 108 -636 400 -749
748 -113 347 -53 751 153 1030 22 30 45 53 49 50 5 -2 14 2 21 10 28 34 16 11
-24 -47z m755 -350 c78 -112 143 -205 145 -207 6 -7 64 94 60 105 -2 6 6 21
20 33 13 11 24 28 24 36 0 8 6 15 14 15 7 0 31 21 52 46 33 41 39 44 44 28 6
-16 20 -20 79 -24 l73 -5 -131 -183 -131 -184 102 -146 c56 -81 117 -168 136
-194 l34 -48 -79 0 -78 1 -90 130 c-49 72 -95 135 -101 140 -8 7 -59 -58 -170
-215 l-159 -225 -117 -1 -117 0 0 550 0 550 123 0 124 0 143 -202z m719 -348
l0 -550 -385 0 -386 0 31 45 31 45 309 0 310 0 0 460 0 460 -300 0 -299 0 -31
45 -31 45 376 0 375 0 0 -550z m-1268 503 c-58 -82 -113 -228 -133 -347 -14
-93 -7 -267 16 -350 62 -232 184 -392 411 -544 16 -10 15 -11 -6 -1 -83 39
-217 158 -285 254 -148 208 -199 469 -140 712 20 78 83 221 121 270 30 40 43
44 16 6z m1504 -118 c57 -119 77 -211 77 -365 0 -107 -5 -152 -22 -214 -41
-154 -134 -311 -247 -416 -34 -32 -29 -24 18 26 258 281 314 668 143 1009 -19
39 -27 61 -19 50 9 -11 31 -51 50 -90z m-246 -1039 c0 -2 -8 -10 -17 -17 -16
-13 -17 -12 -4 4 13 16 21 21 21 13z m-1235 -104 c-3 -3 -11 0 -18 7 -9 10 -8
11 6 5 10 -3 15 -9 12 -12z m118 -30 c-11 -9 -23 -26 -26 -37 -4 -16 -5 -15
-6 6 -1 33 -11 42 -28 27 -25 -21 -23 -2 3 23 15 14 24 18 22 10 -2 -8 6 -17
16 -19 15 -3 18 0 13 19 -6 21 -5 21 11 5 16 -16 16 -18 -5 -34z m1155 28
c-26 -41 26 -77 63 -44 10 9 19 12 19 6 0 -6 -11 -19 -25 -28 -23 -15 -27 -15
-50 0 -27 18 -33 54 -13 74 18 18 20 15 6 -8z m-1082 -80 c3 0 14 5 25 10 13
7 19 7 19 0 0 -5 -4 -10 -9 -10 -5 0 -23 -12 -40 -26 -17 -14 -31 -21 -31 -15
0 5 5 13 10 16 6 3 11 23 11 43 2 30 3 32 6 10 2 -16 7 -28 9 -28z m1054 -42
c0 -13 -10 -9 -42 13 -36 26 -47 19 -24 -16 9 -14 13 -25 8 -25 -5 0 -18 18
-31 40 -24 44 -17 49 31 24 28 -15 30 -15 24 0 -17 44 -15 47 8 11 14 -22 26
-43 26 -47z m-925 -4 c0 -14 -9 -20 -30 -22 -16 -2 -33 -9 -37 -15 -16 -26
-14 1 3 42 18 42 20 43 42 28 12 -8 22 -23 22 -33z m759 13 c-28 -16 -21 -41
8 -26 11 6 23 8 26 4 3 -3 -4 -8 -16 -12 -23 -5 -30 -27 -12 -38 5 -3 20 -1
32 5 22 11 22 10 4 -4 -29 -23 -44 -20 -61 14 -25 48 -18 68 25 69 10 0 8 -4
-6 -12z m-654 -38 c0 -5 -6 -6 -14 -3 -9 4 -18 -6 -27 -30 -7 -20 -17 -36 -21
-36 -5 0 -1 16 7 36 14 34 14 38 -2 50 -15 11 -12 11 20 2 20 -6 37 -15 37
-19z m569 -3 c6 -7 9 -21 5 -30 -4 -10 0 -18 10 -22 9 -3 16 -10 16 -16 0 -5
-10 -2 -22 6 -30 21 -38 20 -39 -6 0 -16 -6 -9 -16 21 -13 36 -13 45 -2 52 20
12 35 11 48 -5z m-471 -18 c17 -17 15 -63 -3 -78 -20 -17 -62 -5 -70 21 -14
43 42 88 73 57z m357 -29 c0 -14 7 -34 15 -45 14 -18 14 -18 -6 -1 -28 23 -44
21 -45 -5 -1 -22 -1 -22 -9 2 -4 14 -8 38 -9 53 -1 25 2 28 27 25 22 -2 27 -8
27 -29z m-220 11 c4 -6 -5 -7 -24 -4 -38 8 -59 -23 -40 -58 11 -21 11 -22 -4
-9 -34 27 -12 81 33 81 16 0 32 -4 35 -10z m108 -71 c-4 -4 -6 13 -3 39 l5 47
3 -39 c2 -21 0 -42 -5 -47z m-51 31 c4 -45 -7 -41 -17 8 -4 19 -3 32 3 32 6 0
12 -18 14 -40z"/>
<path d="M850 1754 c0 -5 5 -15 12 -22 9 -9 5 -12 -21 -12 l-34 0 6 -67 c4
-38 7 -245 7 -460 0 -375 1 -393 18 -393 25 0 27 3 201 249 132 189 149 216
139 235 -6 12 -66 100 -133 196 -67 96 -138 200 -158 230 -21 30 -37 50 -37
44z m64 -859 c-4 -8 -10 -15 -15 -15 -4 0 -6 7 -3 15 4 8 10 15 15 15 4 0 6
-7 3 -15z"/>
<path d="M1296 1426 c-27 -36 -31 -46 -18 -46 9 0 55 70 49 76 -2 3 -16 -11
-31 -30z"/>
<path d="M856 385 c-3 -9 1 -18 10 -22 19 -7 28 2 21 22 -8 19 -23 19 -31 0z"/>
<path d="M1543 343 c-16 -6 -5 -33 13 -33 8 0 14 6 14 14 0 18 -11 25 -27 19z"/>
<path d="M1054 316 c-11 -29 1 -61 23 -64 17 -3 24 3 29 22 3 14 4 33 0 41 -7
19 -45 20 -52 1z"/>
<path d="M1422 303 c2 -10 10 -18 18 -18 8 0 16 8 18 18 2 12 -3 17 -18 17
-15 0 -20 -5 -18 -17z"/>
</g>
</svg>
