/* XPM */
static char *_27500b7658949e79d8dc93663b094d8XYvYQsHxO58MZFLt[] = {
/* columns rows colors chars-per-pixel */
"16 16 186 2 ",
"   c None",
".  c #2A333C",
"X  c #28333F",
"o  c #2B343E",
"O  c #2A343F",
"+  c #2C343C",
"@  c #2C343D",
"#  c #2E353C",
"$  c #2C353E",
"%  c #34373A",
"&  c #30373E",
"*  c #33383B",
"=  c #36383A",
"-  c #36383B",
";  c #37393B",
":  c #34393E",
">  c #38393A",
",  c #3E3D3A",
"<  c #3F3D3A",
"1  c #383E3F",
"2  c #413E39",
"3  c #0B2444",
"4  c #0C2749",
"5  c #0F2849",
"6  c #112744",
"7  c #172B43",
"8  c #132946",
"9  c #162B45",
"0  c #192C43",
"q  c #1A2C43",
"w  c #182C46",
"e  c #1E2F45",
"r  c #1E2F46",
"t  c #112948",
"y  c #132A49",
"u  c #132B49",
"i  c #152C49",
"p  c #152D4C",
"a  c #1A2F49",
"s  c #192F4A",
"d  c #1C304A",
"f  c #19314E",
"g  c #1E354E",
"h  c #153357",
"j  c #1C3550",
"k  c #183457",
"l  c #183557",
"z  c #1A375A",
"x  c #1E3858",
"c  c #1C395B",
"v  c #1B395F",
"b  c #1E3A5D",
"n  c #1C395F",
"m  c #2A3643",
"M  c #2C3844",
"N  c #2F3A47",
"B  c #233448",
"V  c #21344B",
"C  c #24354A",
"Z  c #24364B",
"A  c #22364D",
"S  c #2A3949",
"D  c #2B3A49",
"F  c #28394B",
"G  c #293B4E",
"H  c #2C3D4F",
"J  c #303840",
"K  c #313A41",
"L  c #333A41",
"P  c #373D42",
"I  c #343C45",
"U  c #383E44",
"Y  c #313F4B",
"T  c #213850",
"R  c #203C5D",
"E  c #223D5E",
"W  c #183860",
"Q  c #193860",
"!  c #1A3860",
"~  c #1A3961",
"^  c #1C3A62",
"/  c #1F3D60",
"(  c #1F3F66",
")  c #3C4043",
"_  c #3C4143",
"`  c #38444E",
"'  c #364454",
"]  c #3B4753",
"[  c #3D515A",
"{  c #264160",
"}  c #254261",
"|  c #244267",
" . c #264366",
".. c #2D4967",
"X. c #234369",
"o. c #254368",
"O. c #28476E",
"+. c #2B486A",
"@. c #2A486B",
"#. c #2C4A6C",
"$. c #334C68",
"%. c #365069",
"&. c #284970",
"*. c #2E4D70",
"=. c #2F4E72",
"-. c #304E70",
";. c #395574",
":. c #32527E",
">. c #454644",
",. c #454646",
"<. c gray28",
"1. c #4D4A43",
"2. c #4B4A46",
"3. c #444E4B",
"4. c #474D4F",
"5. c #4A4B4B",
"6. c #4D554A",
"7. c #414B54",
"8. c #484B52",
"9. c #4D5251",
"0. c #46545F",
"q. c #48595B",
"w. c #525050",
"e. c #505157",
"r. c #675741",
"t. c #655743",
"y. c #695942",
"u. c #6F5C42",
"i. c #645E51",
"p. c #605C54",
"a. c #7A634E",
"s. c #636058",
"d. c #65635B",
"f. c #786C56",
"g. c #435260",
"h. c #495467",
"j. c #4F5B62",
"k. c #40576E",
"l. c #475969",
"z. c #41586E",
"x. c #47596C",
"c. c #4F586E",
"v. c #505566",
"b. c #425A72",
"n. c #475F78",
"m. c #475D7A",
"M. c #4E626E",
"N. c #50626E",
"B. c #496075",
"V. c #4D6477",
"C. c #586970",
"Z. c #5A6A72",
"A. c #52677A",
"S. c #52697C",
"D. c #536B7F",
"F. c #5C707D",
"G. c #6C6660",
"H. c #676B6A",
"J. c #6F6A69",
"K. c #6D726E",
"L. c #6E736F",
"P. c #78796F",
"I. c #6C7574",
"U. c #717670",
"Y. c #777970",
"T. c #707C7D",
"R. c #876F4B",
"E. c #877556",
"W. c #907D5E",
"Q. c #937F6D",
"!. c #898370",
"~. c #83867E",
"^. c #5C7180",
"/. c #5E7483",
"(. c #5E719B",
"). c #6B7F95",
"_. c #738387",
"`. c #778585",
"'. c #788687",
"]. c #7E839D",
"[. c #B4B49C",
"{. c #8793AB",
"}. c #BCBEA5",
"|. c #BEC3B4",
" X c #BBC3BB",
".X c #82A5D3",
/* pixels */
"            = = = =             ",
"        = @ O + O @ : =         ",
"    @ @ q S N O O m S q =       ",
"    K t 7 q 3 3 4 5 w 8 t 1     ",
"  3.f s U 1.N 8.v.h.e.` p g 6.  ",
"  [ l T i.R.E.h.(.{.J.w.j h q.  ",
"M...} c K.g.!.)..X{.m.H.z / %.C.",
"A.O.+.^ '.k.$.|.}.:.B.T.W o.*.F.",
"^.O.+.! '.z.#.}.}.| n.`.! o.-./.",
"A.-.| n K.x.~.U.Y.Y.x.I.! ( ;.^.",
"  b.! R d.!.W.' ' f.p.d.b ! V.  ",
"  c.R R w.R.<.t.y.r.u.5.k } Z.  ",
"    g.F G a y y y i s V A j.    ",
"    7.8.Y G B e e C H ` 9.      ",
"        ,.) P J L _ ,.2.        ",
"            , 2 2 2             "
};
